<svg id="Layer_1" data-name="Layer 1" xmlns="http://www.w3.org/2000/svg" viewBox="0 0 512 512"><defs><style>.cls-1{fill:#1a2adf;}</style></defs><path id="visa" class="cls-1" d="M194.39,176.23l-67,159.92H83.63l-33-127.61a17.68,17.68,0,0,0-9.85-14.08A173.76,173.76,0,0,0,0,180.88l1-4.65H71.37a19.29,19.29,0,0,1,19.08,16.31l17.42,92.56,43-108.85h43.5ZM365.73,283.91c.2-42.21-58.37-44.48-58-63.35.12-5.75,5.58-11.86,17.53-13.39a78.05,78.05,0,0,1,40.8,7.14l7.25-33.91a111.34,111.34,0,0,0-38.69-7.07c-40.94,0-69.67,21.75-69.91,52.86-.27,23,20.53,35.82,36.23,43.5,16.12,7.84,21.5,12.79,21.44,19.88-.1,10.73-12.79,15.43-24.76,15.63a86.69,86.69,0,0,1-42.51-10.1l-7.48,35.06a126.12,126.12,0,0,0,46.05,8.51c43.5,0,71.89-21.52,72-54.77m108,52.24H512L478.61,176.22H443.25a18.88,18.88,0,0,0-17.62,11.72l-62,148.2H407l8.62-23.89h53.08Zm-46.16-56.67,21.75-60.05,12.53,60.05Zm-174-103.25L219.37,336.14H177.9l34.24-159.92Z"/></svg>